<?xml version="1.0" standalone="no"?>
<!DOCTYPE svg PUBLIC "-//W3C//DTD SVG 20010904//EN"
 "http://www.w3.org/TR/2001/REC-SVG-20010904/DTD/svg10.dtd">
<svg version="1.0" xmlns="http://www.w3.org/2000/svg"
 width="512.000000pt" height="512.000000pt" viewBox="0 0 512.000000 512.000000"
 preserveAspectRatio="xMidYMid meet">
<metadata>
Created by potrace 1.11, written by Peter Selinger 2001-2013
</metadata>
<g transform="translate(0.000000,512.000000) scale(0.100000,-0.100000)"
fill="#000000" stroke="none">
<path d="M2285 5113 c-970 -28 -1810 -235 -1987 -491 -29 -41 -33 -55 -33
-112 0 -57 4 -71 33 -113 42 -61 142 -130 276 -193 103 -47 105 -49 111 -87 8
-44 7 -43 160 -87 134 -38 300 -75 494 -108 l159 -27 37 -48 c34 -44 35 -47
13 -43 -13 3 -72 12 -133 21 -205 30 -536 112 -691 172 -10 4 -12 0 -8 -12 6
-14 -3 -12 -47 10 -30 15 -67 37 -83 48 l-28 20 11 -21 c12 -22 64 -65 128
-105 34 -22 42 -33 48 -67 8 -49 15 -53 180 -101 104 -30 112 -34 143 -75 18
-24 30 -44 27 -44 -13 0 -262 84 -287 96 -32 17 -35 9 -14 -40 14 -33 17 -34
143 -65 159 -38 422 -84 613 -106 80 -9 154 -18 165 -20 19 -4 72 -81 63 -90
-6 -6 -244 21 -397 45 -154 23 -191 29 -170 23 9 -2 31 -25 49 -50 27 -36 29
-44 14 -40 -10 3 -72 20 -137 37 -65 17 -153 44 -197 60 -44 16 -80 26 -80 24
0 -3 7 -19 16 -35 15 -30 15 -31 -8 -24 -13 4 -56 24 -96 45 -40 21 -68 32
-62 25 5 -6 7 -14 4 -17 -11 -12 97 -105 171 -147 82 -47 191 -83 379 -126
146 -32 377 -71 516 -85 174 -18 167 -16 189 -63 11 -23 16 -43 11 -45 -14 -5
-296 28 -420 49 -166 28 -325 65 -447 104 -59 19 -109 32 -111 30 -7 -7 159
-65 273 -95 103 -27 124 -36 148 -63 15 -18 23 -33 18 -35 -15 -5 -212 54
-306 92 -47 19 -85 32 -85 29 0 -4 22 -37 50 -75 27 -37 48 -68 45 -68 -17 0
-176 65 -230 93 -36 19 -65 31 -65 26 0 -16 106 -88 185 -125 44 -21 102 -56
130 -77 27 -21 81 -55 120 -74 38 -19 89 -51 113 -70 52 -42 118 -64 312 -103
146 -30 432 -70 495 -70 41 0 65 -8 65 -23 0 -6 7 -19 17 -29 9 -10 14 -21 11
-24 -9 -9 -313 26 -457 52 -73 14 -135 23 -137 21 -4 -4 136 -37 245 -58 50
-9 74 -20 104 -48 21 -19 35 -37 29 -39 -14 -4 -242 44 -319 67 -35 11 -63 18
-63 16 0 -3 125 -81 160 -100 9 -5 8 1 -5 16 -11 13 -13 18 -4 12 23 -18 142
-62 218 -80 36 -9 133 -25 215 -37 123 -18 152 -26 163 -42 13 -20 11 -20 -70
-12 -102 9 -268 43 -344 69 -31 10 -58 17 -60 15 -3 -2 44 -30 104 -61 117
-60 195 -82 391 -109 94 -13 125 -22 190 -56 l77 -40 -95 6 c-96 6 -129 17
-187 61 -35 25 -45 13 -16 -19 13 -14 13 -18 2 -18 -8 0 36 -27 96 -59 113
-60 197 -86 360 -112 58 -9 89 -19 112 -38 18 -14 31 -27 29 -28 -2 -2 -56 6
-121 17 -65 11 -120 19 -122 17 -1 -2 22 -21 52 -42 54 -37 79 -63 29 -30 -14
9 -28 14 -31 11 -5 -4 31 -31 107 -79 26 -16 46 -45 77 -107 23 -46 50 -87 60
-91 17 -7 17 -8 1 -8 -10 -1 -18 -5 -18 -10 0 -21 31 -38 104 -55 42 -10 76
-22 76 -27 0 -11 -30 -4 -109 23 -30 10 -55 18 -56 18 -1 0 0 -11 2 -25 5 -24
40 -40 126 -59 15 -4 27 -11 27 -16 0 -8 -67 8 -124 30 -19 7 -21 4 -21 -33
l0 -41 59 -17 c64 -19 71 -23 62 -38 -4 -6 -27 -3 -62 9 -58 20 -74 19 -74 -6
0 -8 -4 -14 -10 -14 -5 0 -10 -9 -10 -21 0 -32 -107 -131 -193 -178 -42 -24
-77 -45 -77 -47 0 -3 21 -15 48 -26 26 -12 42 -23 35 -25 -11 -4 -48 13 -84
38 -25 19 -406 -151 -392 -174 3 -6 1 -7 -6 -3 -6 4 -26 -3 -44 -15 -32 -22
-162 -142 -159 -146 4 -7 -33 -73 -40 -73 -5 0 -23 7 -40 16 -16 9 -27 11 -23
5 3 -6 19 -18 35 -26 25 -13 28 -19 21 -38 -51 -133 12 -346 146 -496 51 -56
161 -141 184 -141 5 0 -1 16 -12 35 -56 95 -72 256 -36 362 17 49 81 123 108
123 5 0 8 4 4 9 -3 6 3 9 12 9 10 0 50 12 88 27 39 15 111 34 160 42 50 8 128
27 175 43 47 15 103 31 125 35 46 8 163 52 185 70 8 6 70 31 137 55 125 45
149 58 72 41 -24 -6 -113 -16 -197 -23 -122 -9 -186 -9 -310 1 -187 15 -222
20 -222 33 0 6 10 8 23 4 12 -3 97 -11 189 -18 184 -13 414 -2 567 27 136 26
362 149 506 276 33 28 75 59 95 67 89 37 220 142 220 176 0 4 11 22 25 40 35
46 31 56 -7 19 -29 -27 -130 -93 -144 -93 -2 0 0 8 5 18 8 16 0 14 -72 -9 -45
-15 -117 -35 -160 -43 -188 -39 -519 -45 -499 -9 7 11 43 15 188 18 278 5 556
63 582 120 20 43 15 45 -57 20 -119 -40 -242 -57 -463 -62 -151 -4 -208 -2
-208 6 0 8 44 11 144 11 214 0 399 22 553 66 52 15 60 25 69 79 2 11 8 40 13
65 5 25 13 88 17 140 3 52 11 101 17 107 6 9 6 13 0 13 -6 0 -13 39 -17 88 -8
92 -35 230 -59 297 -13 35 -13 44 -1 60 20 27 17 41 -5 21 -17 -16 -19 -14
-36 31 -23 61 -21 60 -48 36 -12 -11 -57 -44 -100 -73 -77 -52 -77 -52 -72
-89 6 -33 5 -35 -9 -17 -8 10 -17 24 -19 29 -2 7 -22 5 -58 -6 -220 -67 -310
-91 -421 -110 l-128 -22 -32 33 c-21 20 -27 32 -18 32 8 0 76 9 150 20 208 30
456 97 472 127 3 4 -2 27 -11 49 l-16 41 -110 -28 c-159 -41 -291 -68 -449
-90 -130 -18 -140 -18 -157 -3 -11 10 -19 20 -19 24 0 3 64 14 143 24 161 19
425 69 489 92 24 8 81 26 128 39 88 25 200 70 200 81 0 16 -74 194 -81 194 -4
0 -33 -21 -64 -46 -93 -76 -157 -109 -307 -157 -173 -56 -271 -80 -443 -107
l-130 -21 -30 33 -29 33 29 3 c191 17 578 94 624 123 12 8 9 9 -14 4 -311 -69
-477 -93 -754 -107 l-223 -12 -28 34 -29 35 47 2 c299 14 586 41 777 73 126
22 409 95 508 133 54 20 58 24 53 49 -4 23 0 30 37 51 23 14 60 45 82 68 36
39 37 41 10 24 -16 -10 -54 -32 -85 -47 -50 -27 -55 -28 -61 -11 -13 33 -9 39
39 56 67 25 172 90 207 128 l30 32 -55 -31 c-62 -34 -203 -92 -225 -92 -12 0
-15 15 -15 70 0 66 -1 70 -19 61 -55 -30 -209 -85 -306 -111 -196 -52 -557
-104 -805 -116 l-125 -7 -15 29 c-8 16 -16 32 -18 35 -1 3 62 9 140 13 315 15
584 54 878 127 232 57 263 69 274 108 5 17 7 34 4 36 -3 3 -54 -13 -114 -35
-326 -122 -787 -195 -1295 -207 l-266 -6 -27 45 c-14 25 -26 47 -26 49 0 2 37
2 82 1 110 -5 509 14 705 34 308 30 657 101 893 180 122 41 292 122 335 160
31 26 18 23 -25 -7 -66 -45 -250 -126 -250 -109 0 5 35 27 78 49 79 42 152 95
152 112 0 5 -17 -2 -39 -15 -36 -23 -153 -76 -167 -76 -4 0 -4 14 0 31 5 24 3
30 -8 26 -8 -3 -71 -24 -141 -46 -292 -93 -702 -152 -1225 -176 l-135 -6 -22
40 c-13 22 -23 42 -23 44 0 2 96 7 213 10 245 8 483 28 682 57 174 25 367 61
362 67 -2 2 -56 -5 -118 -16 -376 -66 -696 -91 -1166 -91 l-323 0 -20 40 c-11
21 -20 44 -20 50 0 6 57 10 165 10 l164 0 -19 46 -20 46 42 -6 c60 -9 563 10
759 29 295 27 687 92 869 143 55 16 68 23 82 51 14 27 32 39 99 67 128 52 245
129 270 176 l11 21 -28 -20 c-44 -31 -141 -78 -222 -107 -88 -31 -85 -31 -72
-5 16 29 9 31 -38 15 -74 -26 -264 -75 -392 -100 -443 -87 -1021 -127 -1515
-106 -143 6 -260 12 -261 13 -1 1 -8 22 -16 47 l-15 45 521 0 c558 0 680 7
1074 61 201 27 478 80 612 117 81 22 86 25 108 65 13 23 29 42 35 42 29 0 269
105 334 146 110 69 183 162 183 235 0 68 -63 153 -163 221 -373 253 -1372 411
-2412 381z m815 -73 c783 -57 1371 -219 1513 -417 65 -91 29 -188 -101 -276
-40 -27 -74 -48 -76 -46 -4 5 93 178 112 202 45 53 31 127 -34 187 -285 263
-1565 410 -2654 305 -744 -72 -1220 -236 -1220 -420 0 -14 -6 -25 -13 -25 -12
0 -11 -20 3 -112 10 -62 16 -115 14 -117 -4 -5 -67 41 -107 78 -38 35 -67 92
-67 134 0 46 48 117 112 165 240 180 856 314 1613 351 209 11 709 6 905 -9z
m986 -915 c7 -19 14 -41 14 -49 0 -36 -515 -120 -950 -156 -217 -18 -709 -24
-945 -11 -196 11 -457 40 -470 52 -2 3 0 22 6 43 l11 38 56 -6 c299 -32 1114
-33 1442 -2 254 24 466 54 638 91 86 18 163 33 170 34 7 0 20 -15 28 -34z
m-1013 -1803 c-5 -19 -12 -22 -58 -22 -39 0 -56 5 -70 20 -17 19 -16 19 56 22
41 2 75 3 76 3 1 -1 0 -11 -4 -23z m1204 -180 c-79 -82 -292 -164 -527 -202
-185 -30 -209 -31 -221 -8 -6 11 -9 21 -7 23 2 2 63 11 135 19 72 9 175 25
228 37 118 25 316 96 370 131 51 34 55 34 22 0z m-67 -534 c-68 -28 -241 -49
-435 -52 -110 -2 -171 -2 -135 0 230 12 397 28 475 43 104 22 130 24 95 9z
m-1015 -12 c33 -8 49 -14 35 -15 -14 0 -47 6 -75 13 -65 18 -38 19 40 2z
m1092 -27 c-39 -23 -138 -51 -247 -70 -129 -23 -480 -39 -480 -22 0 6 72 13
178 17 97 3 222 13 277 21 96 14 253 50 263 60 3 3 10 5 16 5 6 0 3 -5 -7 -11z
m33 -204 c-17 -20 -130 -88 -136 -82 -3 2 24 21 60 41 36 20 68 41 71 46 3 6
9 10 12 10 3 0 0 -7 -7 -15z m-335 -241 c-77 -64 -251 -123 -442 -150 -154
-21 -483 -11 -483 16 0 16 30 18 146 9 261 -21 636 43 769 131 41 27 46 24 10
-6z m-199 -133 c-9 -14 -143 -59 -223 -76 -137 -28 -341 -39 -492 -26 -146 13
-206 23 -181 33 8 3 49 1 90 -4 109 -14 477 -4 583 16 68 13 184 46 225 65 2
0 1 -3 -2 -8z m-1111 -11 c3 -6 -1 -7 -9 -4 -18 7 -21 14 -7 14 6 0 13 -4 16
-10z m130 -191 c60 -12 169 -22 270 -26 176 -6 202 -21 40 -22 -137 -1 -420
42 -465 71 -16 10 -11 9 155 -23z m-378 -266 c-20 -2 -52 -2 -70 0 -17 2 0 4
38 4 39 0 53 -2 32 -4z"/>
<path d="M3985 3650 c-71 -21 -119 -38 -105 -39 43 0 243 54 248 67 5 15 10
16 -143 -28z"/>
<path d="M3818 3603 c6 -2 18 -2 25 0 6 3 1 5 -13 5 -14 0 -19 -2 -12 -5z"/>
<path d="M3768 3593 c6 -2 18 -2 25 0 6 3 1 5 -13 5 -14 0 -19 -2 -12 -5z"/>
<path d="M4008 3553 c7 -3 16 -2 19 1 4 3 -2 6 -13 5 -11 0 -14 -3 -6 -6z"/>
<path d="M3920 3535 c-25 -7 -36 -13 -25 -13 11 0 38 5 60 13 52 17 24 17 -35
0z"/>
<path d="M3848 3513 c7 -3 16 -2 19 1 4 3 -2 6 -13 5 -11 0 -14 -3 -6 -6z"/>
<path d="M3798 3503 c6 -2 18 -2 25 0 6 3 1 5 -13 5 -14 0 -19 -2 -12 -5z"/>
<path d="M4058 2505 l-106 -54 19 -41 c11 -22 26 -40 35 -40 21 0 154 63 182
86 23 19 23 20 7 62 -10 23 -20 42 -24 41 -3 0 -54 -24 -113 -54z"/>
</g>
</svg>
